HIERARCHY
ROOT Hips
{
	OFFSET 0.000000 0.000000 0.000000
	CHANNELS 6 Xposition Yposition Zposition Zrotation Yrotation Xrotation 
	JOINT LHipJoint
	{
		OFFSET 0.000000 0.000000 0.000000
		CHANNELS 3 Zrotation Yrotation Xrotation
		JOINT LeftUpLeg
		{
			OFFSET 1.363060 -1.794630 0.839290
			CHANNELS 3 Zrotation Yrotation Xrotation
			JOINT LeftLeg
			{
				OFFSET 2.448110 -6.726130 0.000000
				CHANNELS 3 Zrotation Yrotation Xrotation
				JOINT LeftFoot
				{
					OFFSET 2.562200 -7.039590 0.000000
					CHANNELS 3 Zrotation Yrotation Xrotation
					JOINT LeftToeBase
					{
						OFFSET 0.157640 -0.433110 2.322550
						CHANNELS 3 Zrotation Yrotation Xrotation
						End Site
						{
							OFFSET 0.000000 0.000000 0.000000
						}
					}
				}
			}
		}
	}
	JOINT RHipJoint
	{
		OFFSET 0.000000 0.000000 0.000000
		CHANNELS 3 Zrotation Yrotation Xrotation
		JOINT RightUpLeg
		{
			OFFSET -1.305520 -1.794630 0.839290
			CHANNELS 3 Zrotation Yrotation Xrotation
			JOINT RightLeg
			{
				OFFSET -2.542530 -6.985550 0.000000
				CHANNELS 3 Zrotation Yrotation Xrotation
				JOINT RightFoot
				{
					OFFSET -2.568260 -7.056230 0.000000
					CHANNELS 3 Zrotation Yrotation Xrotation
					JOINT RightToeBase
					{
						OFFSET -0.164730 -0.452590 2.363150
						CHANNELS 3 Zrotation Yrotation Xrotation
						End Site
						{
							OFFSET 0.000000 0.000000 0.000000
						}
					}
				}
			}
		}
	}
	JOINT LowerBack
	{
		OFFSET 0.000000 0.000000 0.000000
		CHANNELS 3 Zrotation Yrotation Xrotation
		JOINT Spine
		{
			OFFSET 0.028270 2.035590 -0.193380
			CHANNELS 3 Zrotation Yrotation Xrotation
			JOINT Spine1
			{
				OFFSET 0.056720 2.048850 -0.042750
				CHANNELS 3 Zrotation Yrotation Xrotation
				JOINT Neck
				{
					OFFSET 0.000000 0.000000 0.000000
					CHANNELS 3 Zrotation Yrotation Xrotation
					JOINT Neck1
					{
						OFFSET -0.054170 1.746240 0.172020
						CHANNELS 3 Zrotation Yrotation Xrotation
						JOINT Head
						{
							OFFSET 0.104070 1.761360 -0.123970
							CHANNELS 3 Zrotation Yrotation Xrotation
							End Site
							{
								OFFSET 0.000000 0.000000 0.000000
							}
						}
					}
				}
				JOINT LeftShoulder
				{
					OFFSET 0.000000 0.000000 0.000000
					CHANNELS 3 Zrotation Yrotation Xrotation
					JOINT LeftArm
					{
						OFFSET 3.362410 1.200890 -0.311210
						CHANNELS 3 Zrotation Yrotation Xrotation
						JOINT LeftForeArm
						{
							OFFSET 4.983000 -0.000000 -0.000000
							CHANNELS 3 Zrotation Yrotation Xrotation
							JOINT LeftHand
							{
								OFFSET 3.483560 -0.000000 -0.000000
								CHANNELS 3 Zrotation Yrotation Xrotation
								JOINT LeftFingerBase
								{
									OFFSET 0.000000 0.000000 0.000000
									CHANNELS 3 Zrotation Yrotation Xrotation
									JOINT LeftHandIndex1
									{
										OFFSET 0.715260 -0.000000 -0.000000
										CHANNELS 3 Zrotation Yrotation Xrotation
										End Site
										{
											OFFSET 0.000000 0.000000 0.000000
										}
									}
								}
								JOINT LThumb
								{
									OFFSET 0.000000 0.000000 0.000000
									CHANNELS 3 Zrotation Yrotation Xrotation
									End Site
									{
										OFFSET 0.000000 0.000000 0.000000
									}
								}
							}
						}
					}
				}
				JOINT RightShoulder
				{
					OFFSET 0.000000 0.000000 0.000000
					CHANNELS 3 Zrotation Yrotation Xrotation
					JOINT RightArm
					{
						OFFSET -3.136600 1.374050 -0.404650
						CHANNELS 3 Zrotation Yrotation Xrotation
						JOINT RightForeArm
						{
							OFFSET -5.241900 -0.000000 -0.000000
							CHANNELS 3 Zrotation Yrotation Xrotation
							JOINT RightHand
							{
								OFFSET -3.444170 -0.000000 -0.000000
								CHANNELS 3 Zrotation Yrotation Xrotation
								JOINT RightFingerBase
								{
									OFFSET 0.000000 0.000000 0.000000
									CHANNELS 3 Zrotation Yrotation Xrotation
									JOINT RightHandIndex1
									{
										OFFSET -0.622530 -0.000000 -0.000000
										CHANNELS 3 Zrotation Yrotation Xrotation
										End Site
										{
											OFFSET 0.000000 0.000000 0.000000
										}
									}
								}
								JOINT RThumb
								{
									OFFSET 0.000000 0.000000 0.000000
									CHANNELS 3 Zrotation Yrotation Xrotation
									End Site
									{
										OFFSET 0.000000 0.000000 0.000000
									}
								}
							}
						}
					}
				}
			}
		}
	}
}
MOTION
Frames: 9
Frame Time: 0.008333
9.544909 17.696180 -36.028878 -5.804979 -4.874788 8.204602 10.175289 4.618286 1.075502 -16.245168 -16.400506 -40.880125 4.120732 16.907303 45.562708 -0.923857 7.590365 7.305975 1.317500 -7.269900 -20.517400 -9.544942 -6.541947 1.668583 40.270803 11.550126 -6.549725 0.099652 -6.588918 25.241246 -0.185288 -1.762706 -9.999828 -0.162500 -2.597100 7.159000 4.795702 2.273759 2.553883 1.266284 2.938703 -2.977004 -0.342610 1.967987 -5.384134 -12.763437 -2.448617 -7.247739 5.782241 -2.585888 10.419846 6.938500 -1.681100 4.821100 4.772947 -6.775953 1.205800 -92.914915 13.472114 25.530452 15.388731 -23.151728 -3.326677 -0.038781 0.168882 22.980808 6.238450 20.896148 2.254500 -7.125000 0.000000 0.000000 -21.778500 49.550800 -2.552200 -5.188866 7.348618 1.004811 82.756713 5.808742 25.621181 -12.750377 18.557488 -3.480741 -0.322784 -2.238984 3.214056 -22.400764 24.377279 -10.463700 7.125000 0.000000 0.000000 4.655800 -1.394200 4.556300
9.543453 17.697818 -35.911917 -5.751828 -4.934761 8.236029 10.141348 4.596539 1.067436 -16.007456 -16.776494 -40.754448 3.582348 16.429868 43.668696 -0.991847 8.050942 7.215447 0.977614 -6.212851 -17.429649 -9.514811 -6.566165 1.678988 40.195149 11.493066 -5.987523 0.135026 -6.450339 24.990130 -0.198859 -1.789400 -10.222805 -0.172607 -2.675361 7.376275 4.743170 2.286243 2.528417 1.246784 2.949009 -2.970519 -0.396877 1.978462 -5.385613 -12.720538 -2.463110 -7.091852 5.766830 -2.617440 10.315119 6.925024 -1.686733 4.719200 4.771535 -6.760650 1.221805 -92.983404 13.780381 25.250185 15.381688 -23.154170 -3.324355 -0.033956 0.165979 23.276709 6.154739 20.809690 2.214182 -7.125000 0.000000 0.000000 -21.819702 49.458897 -2.506138 -5.205234 7.359845 1.015750 82.664086 6.200537 25.838393 -12.969349 18.791713 -3.554447 -0.324412 -2.234659 3.088127 -22.417923 24.387092 -10.471267 7.125000 0.000000 0.000000 4.650387 -1.385529 4.551661
9.542101 17.697204 -35.795301 -5.712487 -4.992059 8.267868 10.105620 4.574911 1.059075 -15.757038 -17.151922 -40.618128 3.047445 15.942080 41.763203 -1.062801 8.528934 7.140727 0.687027 -5.296230 -14.756051 -9.485155 -6.591104 1.688129 40.131356 11.402821 -5.437294 0.171399 -6.310370 24.733441 -0.212308 -1.812670 -10.435973 -0.175957 -2.699595 7.443666 4.696234 2.299098 2.504012 1.229953 2.959558 -2.962618 -0.442579 1.989444 -5.387241 -12.677421 -2.483341 -6.917772 5.748074 -2.657357 10.195667 6.909215 -1.695264 4.604822 4.770826 -6.744804 1.238792 -93.060568 14.072311 24.971511 15.363331 -23.143714 -3.319439 -0.031508 0.165012 23.529810 6.085897 20.851014 2.193006 -7.125000 0.000000 0.000000 -21.906196 49.486942 -2.533936 -5.220162 7.371927 1.028487 82.564752 6.601486 26.056761 -13.190266 19.026240 -3.627685 -0.326771 -2.228941 2.946488 -22.404737 24.384212 -10.457557 7.125000 0.000000 0.000000 4.662255 -1.398019 4.562241
9.541191 17.686952 -35.680161 -5.732249 -5.037912 8.301468 10.062241 4.553792 1.049452 -15.452241 -17.524952 -40.436256 2.527439 15.409983 39.808565 -1.146440 9.081468 7.133663 0.607440 -4.980645 -13.855027 -9.457531 -6.619129 1.691857 40.118328 11.170547 -4.938308 0.212049 -6.164452 24.452896 -0.225235 -1.821282 -10.607156 -0.150385 -2.492592 6.869549 4.673242 2.313543 2.484151 1.224543 2.971145 -2.948655 -0.451622 2.002595 -5.389514 -12.633374 -2.528130 -6.665827 5.714998 -2.733076 10.013189 6.883423 -1.716197 4.437033 4.773126 -6.726635 1.259987 -93.174858 14.294320 24.699655 15.296554 -23.078054 -3.303421 -0.039235 0.172336 23.599731 6.080697 21.439246 2.253759 -7.125000 0.000000 0.000000 -22.186544 50.028363 -2.877854 -5.228930 7.387670 1.048918 82.436709 7.041617 26.280080 -13.419508 19.262057 -3.698919 -0.332265 -2.217259 2.737614 -22.261677 24.327003 -10.352785 7.125000 0.000000 0.000000 4.748083 -1.501078 4.637962
9.540603 17.674539 -35.564675 -5.806934 -5.080690 8.338359 10.012953 4.532051 1.037998 -15.090029 -17.875081 -40.220966 2.017470 14.855598 37.830864 -1.238512 9.661712 7.111110 0.555845 -4.775479 -13.269359 -9.435296 -6.647696 1.694628 40.161523 10.891236 -4.459584 0.249414 -6.024207 24.186005 -0.246139 -1.785767 -10.764252 -0.126885 -2.292033 6.313737 4.697020 2.323859 2.455833 1.232238 2.975962 -2.933526 -0.420513 2.014507 -5.346679 -12.658370 -2.517732 -6.562715 5.736306 -2.723838 9.934318 6.904115 -1.704577 4.356921 4.777028 -6.714936 1.269559 -93.339909 14.436439 24.348279 15.175750 -22.941093 -3.265072 -0.042318 0.181167 23.681069 6.244439 21.864840 2.360224 -7.125000 0.000000 0.000000 -22.232813 50.442190 -3.115098 -5.234820 7.396640 1.062874 82.257191 7.488680 26.499652 -13.642831 19.493066 -3.775342 -0.336628 -2.212282 2.579711 -22.225153 24.352261 -10.336131 7.125000 0.000000 0.000000 4.778952 -1.488426 4.669414
9.540542 17.658585 -35.448624 -5.971693 -5.118422 8.380646 9.953974 4.509288 1.023538 -14.633657 -18.187655 -39.950871 1.523962 14.264662 35.815337 -1.344414 10.287402 7.063154 0.550156 -4.751398 -13.200873 -9.421899 -6.677154 1.695829 40.296927 10.534786 -4.014089 0.281391 -5.893264 23.941504 -0.280127 -1.677883 -10.898247 -0.106781 -2.102042 5.787946 4.797499 2.327404 2.413646 1.261422 2.969676 -2.916482 -0.323552 2.024387 -5.229867 -12.796597 -2.416827 -6.703689 5.846805 -2.575269 10.025363 7.001044 -1.639571 4.420602 4.783555 -6.713847 1.260070 -93.588208 14.447540 23.866493 14.966340 -22.687199 -3.190097 -0.037787 0.192470 23.781133 6.685249 22.023706 2.541655 -7.125000 0.000000 0.000000 -21.895191 50.646762 -3.177398 -5.235993 7.394506 1.066214 81.993253 7.947111 26.713077 -13.856446 19.716191 -3.860277 -0.339140 -2.218304 2.505401 -22.363351 24.512765 -10.463989 7.125000 0.000000 0.000000 4.719690 -1.286008 4.628268
9.540757 17.643354 -35.331298 -6.146352 -5.130514 8.432779 9.896063 4.484973 1.010901 -14.120490 -18.561249 -39.668607 1.050752 13.649026 33.780248 -1.470018 10.972490 6.939423 0.506089 -4.551021 -12.633779 -9.409860 -6.702929 1.700776 40.450227 10.239065 -3.551025 0.312382 -5.765189 23.703747 -0.309120 -1.597256 -11.036232 -0.102211 -2.060732 5.673526 4.936372 2.322117 2.380895 1.285201 2.955849 -2.909356 -0.281710 2.026130 -5.164971 -12.861206 -2.348867 -6.785162 5.887240 -2.475352 10.083292 7.040076 -1.595998 4.455945 4.792973 -6.711564 1.254033 -93.796443 14.515787 23.350793 14.788325 -22.468130 -3.124985 -0.033639 0.198125 24.064501 6.858880 22.038613 2.607134 -7.125000 0.000000 0.000000 -21.738511 50.681439 -3.172982 -5.236472 7.397521 1.069252 81.790074 8.348221 26.843679 -14.057977 19.927539 -3.943516 -0.340375 -2.225581 2.539590 -22.570822 24.652727 -10.624890 7.125000 0.000000 0.000000 4.614079 -1.087763 4.540176
9.541182 17.628673 -35.213003 -6.328536 -5.123119 8.492396 9.838962 4.459477 0.999650 -13.564160 -18.981217 -39.377094 0.592970 13.014619 31.730291 -1.610596 11.702721 6.758102 0.432854 -4.216658 -11.687742 -9.398853 -6.725905 1.708570 40.617129 9.989499 -3.074608 0.342624 -5.639293 23.471116 -0.334317 -1.537344 -11.177249 -0.109446 -2.132421 5.871746 5.104426 2.310120 2.355316 1.304872 2.936293 -2.909769 -0.281757 2.021689 -5.139530 -12.869866 -2.305945 -6.821413 5.874427 -2.412411 10.116054 7.035105 -1.568714 4.469753 4.804587 -6.708372 1.250620 -93.974228 14.627467 22.809318 14.634171 -22.275529 -3.067367 -0.029783 0.199489 24.487180 6.829455 21.944111 2.584490 -7.125000 0.000000 0.000000 -21.719346 50.586995 -3.117862 -5.236422 7.404451 1.072062 81.633070 8.705766 26.911335 -14.250325 20.129939 -4.025466 -0.340639 -2.233811 2.656239 -22.830941 24.777078 -10.810905 7.125000 0.000000 0.000000 4.473242 -0.892690 4.416405
9.541882 17.618220 -35.094707 -6.379058 -5.103975 8.571010 9.784460 4.437165 0.992471 -13.111843 -19.485896 -39.056127 0.165601 12.346829 29.674181 -1.764138 12.425088 6.442712 0.360079 -3.838152 -10.623714 -9.371605 -6.747860 1.719719 40.626224 9.815783 -2.599700 0.380348 -5.505361 23.209597 -0.354306 -1.535726 -11.375753 -0.126681 -2.288294 6.303315 5.166170 2.314336 2.298171 1.294971 2.937120 -2.911577 -0.356346 2.025374 -5.095281 -12.810529 -2.300563 -6.916311 5.860239 -2.403461 10.152233 7.014277 -1.563648 4.508205 4.809805 -6.705494 1.249011 -94.020308 14.767860 22.550835 14.519523 -22.128714 -3.024324 -0.030489 0.198045 24.550524 6.743650 21.880695 2.545569 -7.125000 0.000000 0.000000 -21.768340 50.516485 -3.086383 -5.247545 7.413334 1.070284 81.543055 9.072306 26.997832 -14.477417 20.361423 -4.106256 -0.331670 -2.229244 2.599427 -22.955406 24.647410 -10.829849 7.125000 0.000000 0.000000 4.378221 -1.006613 4.313555
